<mxfile host="app.diagrams.net" modified="2022-11-28T08:37:40.537Z" agent="5.0 (Windows NT 10.0; Win64; x64) AppleWebKit/537.36 (KHTML, like Gecko) Chrome/107.0.0.0 Safari/537.36" etag="CTfYxKNEskAw5Rz2R2G5" version="20.6.0" type="github">
  <diagram name="Page-1" id="e3a06f82-3646-2815-327d-82caf3d4e204">
    <mxGraphModel dx="3829.5" dy="2317" grid="1" gridSize="10" guides="1" tooltips="1" connect="1" arrows="1" fold="1" page="1" pageScale="1.5" pageWidth="1169" pageHeight="826" background="none" math="0" shadow="0">
      <root>
        <mxCell id="0" style=";html=1;" />
        <mxCell id="1" style=";html=1;" parent="0" />
        <mxCell id="-xJ79PivArVGT8UVBn4k-128" value="" style="shape=ext;double=1;rounded=0;whiteSpace=wrap;html=1;" vertex="1" parent="1">
          <mxGeometry x="1489" y="1120" width="241" height="210" as="geometry" />
        </mxCell>
        <mxCell id="-xJ79PivArVGT8UVBn4k-124" value="" style="shape=ext;double=1;rounded=0;whiteSpace=wrap;html=1;" vertex="1" parent="1">
          <mxGeometry x="1925.25" y="90" width="154.5" height="490" as="geometry" />
        </mxCell>
        <mxCell id="-xJ79PivArVGT8UVBn4k-61" value="" style="rounded=0;whiteSpace=wrap;html=1;" vertex="1" parent="1">
          <mxGeometry x="-500" y="-110" width="280" height="1040" as="geometry" />
        </mxCell>
        <mxCell id="-xJ79PivArVGT8UVBn4k-64" value="" style="rounded=0;whiteSpace=wrap;html=1;" vertex="1" parent="1">
          <mxGeometry x="846" y="1100" width="300" height="540" as="geometry" />
        </mxCell>
        <mxCell id="-xJ79PivArVGT8UVBn4k-63" value="" style="rounded=0;whiteSpace=wrap;html=1;" vertex="1" parent="1">
          <mxGeometry x="479" y="1100" width="300" height="540" as="geometry" />
        </mxCell>
        <mxCell id="-xJ79PivArVGT8UVBn4k-62" value="" style="rounded=0;whiteSpace=wrap;html=1;" vertex="1" parent="1">
          <mxGeometry x="90" y="1100" width="290" height="530" as="geometry" />
        </mxCell>
        <mxCell id="-xJ79PivArVGT8UVBn4k-11" value="" style="verticalLabelPosition=bottom;sketch=0;aspect=fixed;html=1;verticalAlign=top;strokeColor=none;align=center;outlineConnect=0;shape=mxgraph.citrix.cloud;" vertex="1" parent="1">
          <mxGeometry x="950" y="257.25" width="95" height="62" as="geometry" />
        </mxCell>
        <mxCell id="-xJ79PivArVGT8UVBn4k-13" value="" style="verticalLabelPosition=bottom;sketch=0;aspect=fixed;html=1;verticalAlign=top;strokeColor=none;align=center;outlineConnect=0;shape=mxgraph.citrix.router;" vertex="1" parent="1">
          <mxGeometry x="620" y="270" width="55" height="36.5" as="geometry" />
        </mxCell>
        <mxCell id="-xJ79PivArVGT8UVBn4k-120" style="edgeStyle=none;rounded=0;jumpStyle=none;jumpSize=2;orthogonalLoop=1;jettySize=auto;html=1;endArrow=none;endFill=0;" edge="1" parent="1" source="-xJ79PivArVGT8UVBn4k-15" target="-xJ79PivArVGT8UVBn4k-116">
          <mxGeometry relative="1" as="geometry" />
        </mxCell>
        <mxCell id="-xJ79PivArVGT8UVBn4k-15" value="" style="verticalLabelPosition=bottom;sketch=0;aspect=fixed;html=1;verticalAlign=top;strokeColor=none;align=center;outlineConnect=0;shape=mxgraph.citrix.router;" vertex="1" parent="1">
          <mxGeometry x="1310" y="281.5" width="55" height="36.5" as="geometry" />
        </mxCell>
        <mxCell id="-xJ79PivArVGT8UVBn4k-16" value="" style="verticalLabelPosition=bottom;sketch=0;aspect=fixed;html=1;verticalAlign=top;strokeColor=none;align=center;outlineConnect=0;shape=mxgraph.citrix.router;" vertex="1" parent="1">
          <mxGeometry x="630" y="360" width="55" height="36.5" as="geometry" />
        </mxCell>
        <mxCell id="-xJ79PivArVGT8UVBn4k-98" style="edgeStyle=none;rounded=0;jumpStyle=none;jumpSize=2;orthogonalLoop=1;jettySize=auto;html=1;endArrow=none;endFill=0;" edge="1" parent="1" source="-xJ79PivArVGT8UVBn4k-18" target="-xJ79PivArVGT8UVBn4k-13">
          <mxGeometry relative="1" as="geometry" />
        </mxCell>
        <mxCell id="-xJ79PivArVGT8UVBn4k-101" style="edgeStyle=none;rounded=0;jumpStyle=none;jumpSize=2;orthogonalLoop=1;jettySize=auto;html=1;endArrow=none;endFill=0;" edge="1" parent="1" source="-xJ79PivArVGT8UVBn4k-18" target="-xJ79PivArVGT8UVBn4k-16">
          <mxGeometry relative="1" as="geometry" />
        </mxCell>
        <mxCell id="-xJ79PivArVGT8UVBn4k-107" style="edgeStyle=none;rounded=0;jumpStyle=none;jumpSize=2;orthogonalLoop=1;jettySize=auto;html=1;endArrow=none;endFill=0;" edge="1" parent="1" source="-xJ79PivArVGT8UVBn4k-18" target="-xJ79PivArVGT8UVBn4k-92">
          <mxGeometry relative="1" as="geometry" />
        </mxCell>
        <mxCell id="-xJ79PivArVGT8UVBn4k-18" value="" style="verticalLabelPosition=bottom;sketch=0;aspect=fixed;html=1;verticalAlign=top;strokeColor=none;align=center;outlineConnect=0;shape=mxgraph.citrix.firewall;" vertex="1" parent="1">
          <mxGeometry x="400" y="226.25" width="75" height="93" as="geometry" />
        </mxCell>
        <mxCell id="-xJ79PivArVGT8UVBn4k-106" style="edgeStyle=none;rounded=0;jumpStyle=none;jumpSize=2;orthogonalLoop=1;jettySize=auto;html=1;endArrow=none;endFill=0;" edge="1" parent="1" source="-xJ79PivArVGT8UVBn4k-21" target="-xJ79PivArVGT8UVBn4k-92">
          <mxGeometry relative="1" as="geometry" />
        </mxCell>
        <mxCell id="-xJ79PivArVGT8UVBn4k-21" value="" style="verticalLabelPosition=bottom;sketch=0;aspect=fixed;html=1;verticalAlign=top;strokeColor=none;align=center;outlineConnect=0;shape=mxgraph.citrix.switch;" vertex="1" parent="1">
          <mxGeometry x="108" y="90" width="92" height="41.5" as="geometry" />
        </mxCell>
        <mxCell id="-xJ79PivArVGT8UVBn4k-28" value="" style="verticalLabelPosition=bottom;sketch=0;aspect=fixed;html=1;verticalAlign=top;strokeColor=none;align=center;outlineConnect=0;shape=mxgraph.citrix.directory_server;" vertex="1" parent="1">
          <mxGeometry x="-400" y="-85.25" width="65" height="88.5" as="geometry" />
        </mxCell>
        <mxCell id="-xJ79PivArVGT8UVBn4k-29" value="" style="verticalLabelPosition=bottom;sketch=0;aspect=fixed;html=1;verticalAlign=top;strokeColor=none;align=center;outlineConnect=0;shape=mxgraph.citrix.directory_server;" vertex="1" parent="1">
          <mxGeometry x="-400.5" y="33.5" width="65" height="88.5" as="geometry" />
        </mxCell>
        <mxCell id="-xJ79PivArVGT8UVBn4k-32" value="" style="verticalLabelPosition=bottom;sketch=0;aspect=fixed;html=1;verticalAlign=top;strokeColor=none;align=center;outlineConnect=0;shape=mxgraph.citrix.database_server;" vertex="1" parent="1">
          <mxGeometry x="-400.5" y="171.75" width="80" height="90" as="geometry" />
        </mxCell>
        <mxCell id="-xJ79PivArVGT8UVBn4k-33" value="" style="verticalLabelPosition=bottom;sketch=0;aspect=fixed;html=1;verticalAlign=top;strokeColor=none;align=center;outlineConnect=0;shape=mxgraph.citrix.database_server;" vertex="1" parent="1">
          <mxGeometry x="-400.5" y="314.75" width="80" height="90" as="geometry" />
        </mxCell>
        <mxCell id="-xJ79PivArVGT8UVBn4k-34" value="" style="verticalLabelPosition=bottom;sketch=0;aspect=fixed;html=1;verticalAlign=top;strokeColor=none;align=center;outlineConnect=0;shape=mxgraph.citrix.database_server;" vertex="1" parent="1">
          <mxGeometry x="-400.5" y="454.75" width="80" height="90" as="geometry" />
        </mxCell>
        <mxCell id="-xJ79PivArVGT8UVBn4k-35" value="" style="verticalLabelPosition=bottom;sketch=0;aspect=fixed;html=1;verticalAlign=top;strokeColor=none;align=center;outlineConnect=0;shape=mxgraph.citrix.database_server;" vertex="1" parent="1">
          <mxGeometry x="-399.5" y="604.75" width="80" height="90" as="geometry" />
        </mxCell>
        <mxCell id="-xJ79PivArVGT8UVBn4k-36" value="" style="verticalLabelPosition=bottom;sketch=0;aspect=fixed;html=1;verticalAlign=top;strokeColor=none;align=center;outlineConnect=0;shape=mxgraph.citrix.file_server;" vertex="1" parent="1">
          <mxGeometry x="250" y="1265.25" width="71" height="97" as="geometry" />
        </mxCell>
        <mxCell id="-xJ79PivArVGT8UVBn4k-37" value="" style="verticalLabelPosition=bottom;sketch=0;aspect=fixed;html=1;verticalAlign=top;strokeColor=none;align=center;outlineConnect=0;shape=mxgraph.citrix.file_server;" vertex="1" parent="1">
          <mxGeometry x="660" y="1265.25" width="71" height="97" as="geometry" />
        </mxCell>
        <mxCell id="-xJ79PivArVGT8UVBn4k-38" value="" style="verticalLabelPosition=bottom;sketch=0;aspect=fixed;html=1;verticalAlign=top;strokeColor=none;align=center;outlineConnect=0;shape=mxgraph.citrix.file_server;" vertex="1" parent="1">
          <mxGeometry x="1000" y="1264.25" width="71" height="97" as="geometry" />
        </mxCell>
        <mxCell id="-xJ79PivArVGT8UVBn4k-39" value="" style="verticalLabelPosition=bottom;sketch=0;aspect=fixed;html=1;verticalAlign=top;strokeColor=none;align=center;outlineConnect=0;shape=mxgraph.citrix.file_server;" vertex="1" parent="1">
          <mxGeometry x="-395" y="744.75" width="71" height="97" as="geometry" />
        </mxCell>
        <mxCell id="-xJ79PivArVGT8UVBn4k-40" value="" style="verticalLabelPosition=bottom;sketch=0;aspect=fixed;html=1;verticalAlign=top;strokeColor=none;align=center;outlineConnect=0;shape=mxgraph.citrix.smtp_server;" vertex="1" parent="1">
          <mxGeometry x="140" y="1270.25" width="76" height="92" as="geometry" />
        </mxCell>
        <mxCell id="-xJ79PivArVGT8UVBn4k-41" value="" style="verticalLabelPosition=bottom;sketch=0;aspect=fixed;html=1;verticalAlign=top;strokeColor=none;align=center;outlineConnect=0;shape=mxgraph.citrix.smtp_server;" vertex="1" parent="1">
          <mxGeometry x="570" y="1265.25" width="76" height="92" as="geometry" />
        </mxCell>
        <mxCell id="-xJ79PivArVGT8UVBn4k-42" value="" style="verticalLabelPosition=bottom;sketch=0;aspect=fixed;html=1;verticalAlign=top;strokeColor=none;align=center;outlineConnect=0;shape=mxgraph.citrix.smtp_server;" vertex="1" parent="1">
          <mxGeometry x="900" y="1267.75" width="76" height="92" as="geometry" />
        </mxCell>
        <mxCell id="-xJ79PivArVGT8UVBn4k-44" value="" style="verticalLabelPosition=bottom;sketch=0;aspect=fixed;html=1;verticalAlign=top;strokeColor=none;align=center;outlineConnect=0;shape=mxgraph.citrix.desktop;" vertex="1" parent="1">
          <mxGeometry x="170" y="1425.25" width="89" height="98" as="geometry" />
        </mxCell>
        <mxCell id="-xJ79PivArVGT8UVBn4k-45" value="" style="verticalLabelPosition=bottom;sketch=0;aspect=fixed;html=1;verticalAlign=top;strokeColor=none;align=center;outlineConnect=0;shape=mxgraph.citrix.desktop;" vertex="1" parent="1">
          <mxGeometry x="616" y="1425.25" width="89" height="98" as="geometry" />
        </mxCell>
        <mxCell id="-xJ79PivArVGT8UVBn4k-46" value="" style="verticalLabelPosition=bottom;sketch=0;aspect=fixed;html=1;verticalAlign=top;strokeColor=none;align=center;outlineConnect=0;shape=mxgraph.citrix.desktop;" vertex="1" parent="1">
          <mxGeometry x="953" y="1405.25" width="89" height="98" as="geometry" />
        </mxCell>
        <mxCell id="-xJ79PivArVGT8UVBn4k-68" style="rounded=0;jumpStyle=none;jumpSize=2;orthogonalLoop=1;jettySize=auto;html=1;endArrow=none;endFill=0;" edge="1" parent="1" source="-xJ79PivArVGT8UVBn4k-47" target="-xJ79PivArVGT8UVBn4k-49">
          <mxGeometry relative="1" as="geometry" />
        </mxCell>
        <mxCell id="-xJ79PivArVGT8UVBn4k-69" style="edgeStyle=none;rounded=0;jumpStyle=none;jumpSize=2;orthogonalLoop=1;jettySize=auto;html=1;endArrow=none;endFill=0;" edge="1" parent="1" source="-xJ79PivArVGT8UVBn4k-47" target="-xJ79PivArVGT8UVBn4k-50">
          <mxGeometry relative="1" as="geometry" />
        </mxCell>
        <mxCell id="-xJ79PivArVGT8UVBn4k-71" style="edgeStyle=none;rounded=0;jumpStyle=none;jumpSize=2;orthogonalLoop=1;jettySize=auto;html=1;endArrow=none;endFill=0;" edge="1" parent="1" source="-xJ79PivArVGT8UVBn4k-47" target="-xJ79PivArVGT8UVBn4k-48">
          <mxGeometry relative="1" as="geometry" />
        </mxCell>
        <mxCell id="-xJ79PivArVGT8UVBn4k-84" style="edgeStyle=none;rounded=0;jumpStyle=none;jumpSize=2;orthogonalLoop=1;jettySize=auto;html=1;endArrow=none;endFill=0;" edge="1" parent="1" source="-xJ79PivArVGT8UVBn4k-47" target="-xJ79PivArVGT8UVBn4k-92">
          <mxGeometry relative="1" as="geometry" />
        </mxCell>
        <mxCell id="-xJ79PivArVGT8UVBn4k-47" value="" style="verticalLabelPosition=bottom;sketch=0;aspect=fixed;html=1;verticalAlign=top;strokeColor=none;align=center;outlineConnect=0;shape=mxgraph.citrix.switch;" vertex="1" parent="1">
          <mxGeometry x="350" y="703.25" width="92" height="41.5" as="geometry" />
        </mxCell>
        <mxCell id="-xJ79PivArVGT8UVBn4k-72" style="edgeStyle=none;rounded=0;jumpStyle=none;jumpSize=2;orthogonalLoop=1;jettySize=auto;html=1;endArrow=none;endFill=0;" edge="1" parent="1" source="-xJ79PivArVGT8UVBn4k-48" target="-xJ79PivArVGT8UVBn4k-50">
          <mxGeometry relative="1" as="geometry" />
        </mxCell>
        <mxCell id="-xJ79PivArVGT8UVBn4k-73" style="edgeStyle=none;rounded=0;jumpStyle=none;jumpSize=2;orthogonalLoop=1;jettySize=auto;html=1;endArrow=none;endFill=0;" edge="1" parent="1" source="-xJ79PivArVGT8UVBn4k-48" target="-xJ79PivArVGT8UVBn4k-51">
          <mxGeometry relative="1" as="geometry" />
        </mxCell>
        <mxCell id="-xJ79PivArVGT8UVBn4k-83" style="edgeStyle=none;rounded=0;jumpStyle=none;jumpSize=2;orthogonalLoop=1;jettySize=auto;html=1;endArrow=none;endFill=0;" edge="1" parent="1" source="-xJ79PivArVGT8UVBn4k-48" target="-xJ79PivArVGT8UVBn4k-92">
          <mxGeometry relative="1" as="geometry" />
        </mxCell>
        <mxCell id="-xJ79PivArVGT8UVBn4k-48" value="" style="verticalLabelPosition=bottom;sketch=0;aspect=fixed;html=1;verticalAlign=top;strokeColor=none;align=center;outlineConnect=0;shape=mxgraph.citrix.switch;" vertex="1" parent="1">
          <mxGeometry x="760" y="703.25" width="92" height="41.5" as="geometry" />
        </mxCell>
        <mxCell id="-xJ79PivArVGT8UVBn4k-77" style="edgeStyle=none;rounded=0;jumpStyle=none;jumpSize=2;orthogonalLoop=1;jettySize=auto;html=1;entryX=0.5;entryY=0;entryDx=0;entryDy=0;endArrow=none;endFill=0;" edge="1" parent="1" source="-xJ79PivArVGT8UVBn4k-49" target="-xJ79PivArVGT8UVBn4k-62">
          <mxGeometry relative="1" as="geometry" />
        </mxCell>
        <mxCell id="-xJ79PivArVGT8UVBn4k-78" style="edgeStyle=none;rounded=0;jumpStyle=none;jumpSize=2;orthogonalLoop=1;jettySize=auto;html=1;endArrow=none;endFill=0;" edge="1" parent="1" source="-xJ79PivArVGT8UVBn4k-49" target="-xJ79PivArVGT8UVBn4k-48">
          <mxGeometry relative="1" as="geometry" />
        </mxCell>
        <mxCell id="-xJ79PivArVGT8UVBn4k-49" value="" style="verticalLabelPosition=bottom;sketch=0;aspect=fixed;html=1;verticalAlign=top;strokeColor=none;align=center;outlineConnect=0;shape=mxgraph.citrix.switch;" vertex="1" parent="1">
          <mxGeometry x="200" y="874.25" width="92" height="41.5" as="geometry" />
        </mxCell>
        <mxCell id="-xJ79PivArVGT8UVBn4k-75" style="edgeStyle=none;rounded=0;jumpStyle=none;jumpSize=2;orthogonalLoop=1;jettySize=auto;html=1;endArrow=none;endFill=0;entryX=0.5;entryY=0;entryDx=0;entryDy=0;" edge="1" parent="1" source="-xJ79PivArVGT8UVBn4k-50" target="-xJ79PivArVGT8UVBn4k-63">
          <mxGeometry relative="1" as="geometry">
            <mxPoint x="629" y="1070" as="targetPoint" />
          </mxGeometry>
        </mxCell>
        <mxCell id="-xJ79PivArVGT8UVBn4k-50" value="" style="verticalLabelPosition=bottom;sketch=0;aspect=fixed;html=1;verticalAlign=top;strokeColor=none;align=center;outlineConnect=0;shape=mxgraph.citrix.switch;" vertex="1" parent="1">
          <mxGeometry x="583" y="874.25" width="92" height="41.5" as="geometry" />
        </mxCell>
        <mxCell id="-xJ79PivArVGT8UVBn4k-76" style="edgeStyle=none;rounded=0;jumpStyle=none;jumpSize=2;orthogonalLoop=1;jettySize=auto;html=1;endArrow=none;endFill=0;" edge="1" parent="1" source="-xJ79PivArVGT8UVBn4k-51" target="-xJ79PivArVGT8UVBn4k-64">
          <mxGeometry relative="1" as="geometry" />
        </mxCell>
        <mxCell id="-xJ79PivArVGT8UVBn4k-79" style="edgeStyle=none;rounded=0;jumpStyle=none;jumpSize=2;orthogonalLoop=1;jettySize=auto;html=1;endArrow=none;endFill=0;" edge="1" parent="1" source="-xJ79PivArVGT8UVBn4k-51" target="-xJ79PivArVGT8UVBn4k-47">
          <mxGeometry relative="1" as="geometry" />
        </mxCell>
        <mxCell id="-xJ79PivArVGT8UVBn4k-51" value="" style="verticalLabelPosition=bottom;sketch=0;aspect=fixed;html=1;verticalAlign=top;strokeColor=none;align=center;outlineConnect=0;shape=mxgraph.citrix.switch;" vertex="1" parent="1">
          <mxGeometry x="930" y="874.25" width="92" height="41.5" as="geometry" />
        </mxCell>
        <mxCell id="-xJ79PivArVGT8UVBn4k-52" value="" style="verticalLabelPosition=bottom;sketch=0;aspect=fixed;html=1;verticalAlign=top;strokeColor=none;align=center;outlineConnect=0;shape=mxgraph.citrix.switch;" vertex="1" parent="1">
          <mxGeometry x="190" y="1154.25" width="92" height="41.5" as="geometry" />
        </mxCell>
        <mxCell id="-xJ79PivArVGT8UVBn4k-53" value="" style="verticalLabelPosition=bottom;sketch=0;aspect=fixed;html=1;verticalAlign=top;strokeColor=none;align=center;outlineConnect=0;shape=mxgraph.citrix.switch;" vertex="1" parent="1">
          <mxGeometry x="601.5" y="1154.25" width="92" height="41.5" as="geometry" />
        </mxCell>
        <mxCell id="-xJ79PivArVGT8UVBn4k-54" value="" style="verticalLabelPosition=bottom;sketch=0;aspect=fixed;html=1;verticalAlign=top;strokeColor=none;align=center;outlineConnect=0;shape=mxgraph.citrix.switch;" vertex="1" parent="1">
          <mxGeometry x="950" y="1154.25" width="92" height="41.5" as="geometry" />
        </mxCell>
        <mxCell id="-xJ79PivArVGT8UVBn4k-55" value="" style="verticalLabelPosition=bottom;sketch=0;aspect=fixed;html=1;verticalAlign=top;strokeColor=none;align=center;outlineConnect=0;shape=mxgraph.citrix.switch;" vertex="1" parent="1">
          <mxGeometry x="920" y="1164.25" width="92" height="41.5" as="geometry" />
        </mxCell>
        <mxCell id="-xJ79PivArVGT8UVBn4k-56" value="" style="verticalLabelPosition=bottom;sketch=0;aspect=fixed;html=1;verticalAlign=top;strokeColor=none;align=center;outlineConnect=0;shape=mxgraph.citrix.switch;" vertex="1" parent="1">
          <mxGeometry x="583" y="1154.25" width="92" height="41.5" as="geometry" />
        </mxCell>
        <mxCell id="-xJ79PivArVGT8UVBn4k-57" value="" style="verticalLabelPosition=bottom;sketch=0;aspect=fixed;html=1;verticalAlign=top;strokeColor=none;align=center;outlineConnect=0;shape=mxgraph.citrix.switch;" vertex="1" parent="1">
          <mxGeometry x="167" y="1154.25" width="92" height="41.5" as="geometry" />
        </mxCell>
        <mxCell id="-xJ79PivArVGT8UVBn4k-99" style="edgeStyle=none;rounded=0;jumpStyle=none;jumpSize=2;orthogonalLoop=1;jettySize=auto;html=1;endArrow=none;endFill=0;" edge="1" parent="1" source="-xJ79PivArVGT8UVBn4k-60" target="-xJ79PivArVGT8UVBn4k-16">
          <mxGeometry relative="1" as="geometry" />
        </mxCell>
        <mxCell id="-xJ79PivArVGT8UVBn4k-100" style="edgeStyle=none;rounded=0;jumpStyle=none;jumpSize=2;orthogonalLoop=1;jettySize=auto;html=1;endArrow=none;endFill=0;" edge="1" parent="1" source="-xJ79PivArVGT8UVBn4k-60" target="-xJ79PivArVGT8UVBn4k-13">
          <mxGeometry relative="1" as="geometry" />
        </mxCell>
        <mxCell id="-xJ79PivArVGT8UVBn4k-108" style="edgeStyle=none;rounded=0;jumpStyle=none;jumpSize=2;orthogonalLoop=1;jettySize=auto;html=1;endArrow=none;endFill=0;" edge="1" parent="1" source="-xJ79PivArVGT8UVBn4k-60" target="-xJ79PivArVGT8UVBn4k-92">
          <mxGeometry relative="1" as="geometry" />
        </mxCell>
        <mxCell id="-xJ79PivArVGT8UVBn4k-60" value="" style="verticalLabelPosition=bottom;sketch=0;aspect=fixed;html=1;verticalAlign=top;strokeColor=none;align=center;outlineConnect=0;shape=mxgraph.citrix.firewall;" vertex="1" parent="1">
          <mxGeometry x="400" y="340" width="75" height="93" as="geometry" />
        </mxCell>
        <mxCell id="-xJ79PivArVGT8UVBn4k-102" style="edgeStyle=none;rounded=0;jumpStyle=none;jumpSize=2;orthogonalLoop=1;jettySize=auto;html=1;exitX=0.5;exitY=1;exitDx=0;exitDy=0;endArrow=none;endFill=0;" edge="1" parent="1" source="-xJ79PivArVGT8UVBn4k-65" target="-xJ79PivArVGT8UVBn4k-21">
          <mxGeometry relative="1" as="geometry" />
        </mxCell>
        <mxCell id="-xJ79PivArVGT8UVBn4k-65" value="" style="rounded=0;whiteSpace=wrap;html=1;" vertex="1" parent="1">
          <mxGeometry x="-220" y="-310" width="710" height="290" as="geometry" />
        </mxCell>
        <mxCell id="-xJ79PivArVGT8UVBn4k-19" value="" style="verticalLabelPosition=bottom;sketch=0;aspect=fixed;html=1;verticalAlign=top;strokeColor=none;align=center;outlineConnect=0;shape=mxgraph.citrix.web_server;" vertex="1" parent="1">
          <mxGeometry x="-180" y="-200" width="76.5" height="90" as="geometry" />
        </mxCell>
        <mxCell id="-xJ79PivArVGT8UVBn4k-20" value="" style="verticalLabelPosition=bottom;sketch=0;aspect=fixed;html=1;verticalAlign=top;strokeColor=none;align=center;outlineConnect=0;shape=mxgraph.citrix.web_server;" vertex="1" parent="1">
          <mxGeometry x="-24.5" y="-200" width="76.5" height="90" as="geometry" />
        </mxCell>
        <mxCell id="-xJ79PivArVGT8UVBn4k-23" value="" style="verticalLabelPosition=bottom;sketch=0;aspect=fixed;html=1;verticalAlign=top;strokeColor=none;align=center;outlineConnect=0;shape=mxgraph.citrix.smtp_server;" vertex="1" parent="1">
          <mxGeometry x="108" y="-202" width="76" height="92" as="geometry" />
        </mxCell>
        <mxCell id="-xJ79PivArVGT8UVBn4k-26" value="" style="verticalLabelPosition=bottom;sketch=0;aspect=fixed;html=1;verticalAlign=top;strokeColor=none;align=center;outlineConnect=0;shape=mxgraph.citrix.smtp_server;" vertex="1" parent="1">
          <mxGeometry x="250" y="-200" width="76" height="92" as="geometry" />
        </mxCell>
        <mxCell id="-xJ79PivArVGT8UVBn4k-43" value="" style="verticalLabelPosition=bottom;sketch=0;aspect=fixed;html=1;verticalAlign=top;strokeColor=none;align=center;outlineConnect=0;shape=mxgraph.citrix.smtp_server;" vertex="1" parent="1">
          <mxGeometry x="370" y="-200" width="76" height="92" as="geometry" />
        </mxCell>
        <mxCell id="-xJ79PivArVGT8UVBn4k-103" style="edgeStyle=none;rounded=0;jumpStyle=none;jumpSize=2;orthogonalLoop=1;jettySize=auto;html=1;endArrow=none;endFill=0;" edge="1" parent="1" source="-xJ79PivArVGT8UVBn4k-82" target="-xJ79PivArVGT8UVBn4k-92">
          <mxGeometry relative="1" as="geometry" />
        </mxCell>
        <mxCell id="-xJ79PivArVGT8UVBn4k-82" value="" style="verticalLabelPosition=bottom;sketch=0;aspect=fixed;html=1;verticalAlign=top;strokeColor=none;align=center;outlineConnect=0;shape=mxgraph.citrix.firewall;" vertex="1" parent="1">
          <mxGeometry x="0.5" y="350" width="75" height="93" as="geometry" />
        </mxCell>
        <mxCell id="-xJ79PivArVGT8UVBn4k-95" style="edgeStyle=none;rounded=0;jumpStyle=none;jumpSize=2;orthogonalLoop=1;jettySize=auto;html=1;endArrow=none;endFill=0;entryX=1;entryY=0.5;entryDx=0;entryDy=0;" edge="1" parent="1" source="-xJ79PivArVGT8UVBn4k-111" target="-xJ79PivArVGT8UVBn4k-61">
          <mxGeometry relative="1" as="geometry">
            <mxPoint x="20" y="359" as="targetPoint" />
          </mxGeometry>
        </mxCell>
        <mxCell id="-xJ79PivArVGT8UVBn4k-92" value="" style="verticalLabelPosition=bottom;sketch=0;aspect=fixed;html=1;verticalAlign=top;strokeColor=none;align=center;outlineConnect=0;shape=mxgraph.citrix.switch;" vertex="1" parent="1">
          <mxGeometry x="200" y="396.5" width="92" height="41.5" as="geometry" />
        </mxCell>
        <mxCell id="-xJ79PivArVGT8UVBn4k-112" style="edgeStyle=none;rounded=0;jumpStyle=none;jumpSize=2;orthogonalLoop=1;jettySize=auto;html=1;endArrow=none;endFill=0;" edge="1" parent="1" source="-xJ79PivArVGT8UVBn4k-111" target="-xJ79PivArVGT8UVBn4k-82">
          <mxGeometry relative="1" as="geometry">
            <mxPoint x="-20" y="430" as="targetPoint" />
          </mxGeometry>
        </mxCell>
        <mxCell id="-xJ79PivArVGT8UVBn4k-111" value="" style="verticalLabelPosition=bottom;sketch=0;aspect=fixed;html=1;verticalAlign=top;strokeColor=none;align=center;outlineConnect=0;shape=mxgraph.citrix.switch;" vertex="1" parent="1">
          <mxGeometry x="-160" y="380" width="92" height="41.5" as="geometry" />
        </mxCell>
        <mxCell id="-xJ79PivArVGT8UVBn4k-113" value="" style="verticalLabelPosition=bottom;sketch=0;aspect=fixed;html=1;verticalAlign=top;strokeColor=none;align=center;outlineConnect=0;shape=mxgraph.citrix.directory_server;" vertex="1" parent="1">
          <mxGeometry x="1970" y="125.25" width="65" height="88.5" as="geometry" />
        </mxCell>
        <mxCell id="-xJ79PivArVGT8UVBn4k-114" value="" style="verticalLabelPosition=bottom;sketch=0;aspect=fixed;html=1;verticalAlign=top;strokeColor=none;align=center;outlineConnect=0;shape=mxgraph.citrix.file_server;" vertex="1" parent="1">
          <mxGeometry x="1970" y="273.75" width="71" height="97" as="geometry" />
        </mxCell>
        <mxCell id="-xJ79PivArVGT8UVBn4k-115" value="" style="verticalLabelPosition=bottom;sketch=0;aspect=fixed;html=1;verticalAlign=top;strokeColor=none;align=center;outlineConnect=0;shape=mxgraph.citrix.file_server;" vertex="1" parent="1">
          <mxGeometry x="1970" y="455.25" width="71" height="97" as="geometry" />
        </mxCell>
        <mxCell id="-xJ79PivArVGT8UVBn4k-121" style="edgeStyle=none;rounded=0;jumpStyle=none;jumpSize=2;orthogonalLoop=1;jettySize=auto;html=1;endArrow=none;endFill=0;" edge="1" parent="1" source="-xJ79PivArVGT8UVBn4k-116" target="-xJ79PivArVGT8UVBn4k-118">
          <mxGeometry relative="1" as="geometry" />
        </mxCell>
        <mxCell id="-xJ79PivArVGT8UVBn4k-126" style="edgeStyle=none;rounded=0;jumpStyle=none;jumpSize=2;orthogonalLoop=1;jettySize=auto;html=1;endArrow=none;endFill=0;" edge="1" parent="1" source="-xJ79PivArVGT8UVBn4k-116" target="-xJ79PivArVGT8UVBn4k-119">
          <mxGeometry relative="1" as="geometry" />
        </mxCell>
        <mxCell id="-xJ79PivArVGT8UVBn4k-116" value="" style="verticalLabelPosition=bottom;sketch=0;aspect=fixed;html=1;verticalAlign=top;strokeColor=none;align=center;outlineConnect=0;shape=mxgraph.citrix.firewall;" vertex="1" parent="1">
          <mxGeometry x="1490" y="256" width="75" height="93" as="geometry" />
        </mxCell>
        <mxCell id="-xJ79PivArVGT8UVBn4k-117" value="" style="verticalLabelPosition=bottom;sketch=0;aspect=fixed;html=1;verticalAlign=top;strokeColor=none;align=center;outlineConnect=0;shape=mxgraph.citrix.desktop;" vertex="1" parent="1">
          <mxGeometry x="1579" y="1160" width="89" height="98" as="geometry" />
        </mxCell>
        <mxCell id="-xJ79PivArVGT8UVBn4k-125" style="edgeStyle=none;rounded=0;jumpStyle=none;jumpSize=2;orthogonalLoop=1;jettySize=auto;html=1;entryX=0;entryY=0.5;entryDx=0;entryDy=0;endArrow=none;endFill=0;" edge="1" parent="1" source="-xJ79PivArVGT8UVBn4k-118" target="-xJ79PivArVGT8UVBn4k-124">
          <mxGeometry relative="1" as="geometry" />
        </mxCell>
        <mxCell id="-xJ79PivArVGT8UVBn4k-118" value="" style="verticalLabelPosition=bottom;sketch=0;aspect=fixed;html=1;verticalAlign=top;strokeColor=none;align=center;outlineConnect=0;shape=mxgraph.citrix.switch;" vertex="1" parent="1">
          <mxGeometry x="1730" y="279" width="92" height="41.5" as="geometry" />
        </mxCell>
        <mxCell id="-xJ79PivArVGT8UVBn4k-127" style="edgeStyle=none;rounded=0;jumpStyle=none;jumpSize=2;orthogonalLoop=1;jettySize=auto;html=1;endArrow=none;endFill=0;entryX=0.5;entryY=0;entryDx=0;entryDy=0;" edge="1" parent="1" source="-xJ79PivArVGT8UVBn4k-119" target="-xJ79PivArVGT8UVBn4k-128">
          <mxGeometry relative="1" as="geometry" />
        </mxCell>
        <mxCell id="-xJ79PivArVGT8UVBn4k-119" value="" style="verticalLabelPosition=bottom;sketch=0;aspect=fixed;html=1;verticalAlign=top;strokeColor=none;align=center;outlineConnect=0;shape=mxgraph.citrix.switch;" vertex="1" parent="1">
          <mxGeometry x="1557" y="760" width="92" height="41.5" as="geometry" />
        </mxCell>
        <mxCell id="-xJ79PivArVGT8UVBn4k-129" value="&lt;font style=&quot;font-size: 24px;&quot;&gt;HCM: 172.16.0.0/21&lt;/font&gt;" style="text;html=1;strokeColor=none;fillColor=none;align=center;verticalAlign=middle;whiteSpace=wrap;rounded=0;" vertex="1" parent="1">
          <mxGeometry x="-280" y="-380" width="290" height="60" as="geometry" />
        </mxCell>
        <mxCell id="-xJ79PivArVGT8UVBn4k-130" value="&lt;span style=&quot;font-size: 24px;&quot;&gt;Kế Toán: 200 host&lt;/span&gt;" style="text;html=1;strokeColor=none;fillColor=none;align=center;verticalAlign=middle;whiteSpace=wrap;rounded=0;" vertex="1" parent="1">
          <mxGeometry x="90" y="1540" width="290" height="60" as="geometry" />
        </mxCell>
        <mxCell id="-xJ79PivArVGT8UVBn4k-131" value="&lt;span style=&quot;font-size: 24px;&quot;&gt;Kinh Doanh: 500&lt;/span&gt;" style="text;html=1;strokeColor=none;fillColor=none;align=center;verticalAlign=middle;whiteSpace=wrap;rounded=0;" vertex="1" parent="1">
          <mxGeometry x="484" y="1560" width="290" height="60" as="geometry" />
        </mxCell>
        <mxCell id="-xJ79PivArVGT8UVBn4k-132" value="&lt;span style=&quot;font-size: 24px;&quot;&gt;Nhân sự: 200 host&lt;/span&gt;" style="text;html=1;strokeColor=none;fillColor=none;align=center;verticalAlign=middle;whiteSpace=wrap;rounded=0;" vertex="1" parent="1">
          <mxGeometry x="846" y="1550" width="290" height="60" as="geometry" />
        </mxCell>
        <mxCell id="-xJ79PivArVGT8UVBn4k-133" value="&lt;span style=&quot;font-size: 24px;&quot;&gt;172.16.6.0/23&lt;/span&gt;" style="text;html=1;strokeColor=none;fillColor=none;align=center;verticalAlign=middle;whiteSpace=wrap;rounded=0;" vertex="1" parent="1">
          <mxGeometry x="475" y="1100" width="290" height="60" as="geometry" />
        </mxCell>
        <mxCell id="-xJ79PivArVGT8UVBn4k-134" value="&lt;span style=&quot;font-size: 24px;&quot;&gt;172.16.4.0/24&lt;/span&gt;" style="text;html=1;strokeColor=none;fillColor=none;align=center;verticalAlign=middle;whiteSpace=wrap;rounded=0;" vertex="1" parent="1">
          <mxGeometry x="90" y="1100" width="290" height="60" as="geometry" />
        </mxCell>
        <mxCell id="-xJ79PivArVGT8UVBn4k-135" value="&lt;span style=&quot;font-size: 24px;&quot;&gt;172.16.5.0/24&lt;/span&gt;" style="text;html=1;strokeColor=none;fillColor=none;align=center;verticalAlign=middle;whiteSpace=wrap;rounded=0;" vertex="1" parent="1">
          <mxGeometry x="852" y="1104.25" width="290" height="60" as="geometry" />
        </mxCell>
        <mxCell id="-xJ79PivArVGT8UVBn4k-136" value="&lt;span style=&quot;font-size: 24px;&quot;&gt;172.16.2.0/28&lt;/span&gt;" style="text;html=1;strokeColor=none;fillColor=none;align=center;verticalAlign=middle;whiteSpace=wrap;rounded=0;" vertex="1" parent="1">
          <mxGeometry x="-505.5" y="855.75" width="290" height="60" as="geometry" />
        </mxCell>
        <mxCell id="-xJ79PivArVGT8UVBn4k-137" value="&lt;span style=&quot;font-size: 24px;&quot;&gt;172.16.3.0/29&lt;/span&gt;" style="text;html=1;strokeColor=none;fillColor=none;align=center;verticalAlign=middle;whiteSpace=wrap;rounded=0;" vertex="1" parent="1">
          <mxGeometry x="0.5" y="-80" width="290" height="60" as="geometry" />
        </mxCell>
      </root>
    </mxGraphModel>
  </diagram>
</mxfile>
